<svg width="24" height="24" viewBox="0 0 24 24" fill="none" xmlns="http://www.w3.org/2000/svg">
<path fill-rule="evenodd" clip-rule="evenodd" d="M11.026 21.425C11.139 21.521 11.311 21.648 11.548 21.723C11.8422 21.816 12.1578 21.816 12.452 21.723C12.689 21.648 12.862 21.521 12.974 21.425C13.072 21.343 13.174 21.24 13.26 21.155L14.414 20H17.819C18.355 20 18.818 20 19.199 19.968C19.6 19.935 19.999 19.861 20.383 19.662C20.9313 19.3773 21.3783 18.9303 21.663 18.382C21.861 18 21.935 17.6 21.968 17.198C22 16.818 22 16.355 22 15.819V6.181C22 5.645 22 5.182 21.968 4.801C21.935 4.4 21.861 4.001 21.662 3.617C21.3773 3.06872 20.9303 2.62169 20.382 2.337C20 2.139 19.6 2.065 19.198 2.032C18.818 2 18.355 2 17.82 2H6.181C5.645 2 5.182 2 4.801 2.032C4.4 2.065 4.001 2.139 3.617 2.338C3.06872 2.62269 2.62169 3.06972 2.337 3.618C2.14 4 2.066 4.4 2.033 4.801C2 5.182 2 5.645 2 6.18V15.818C2 16.354 2 16.817 2.032 17.198C2.065 17.599 2.139 17.998 2.338 18.382C2.62269 18.9303 3.06972 19.3773 3.618 19.662C4 19.86 4.4 19.934 4.802 19.967C5.182 19.999 5.645 19.999 6.181 19.999H9.586L10.74 21.153C10.826 21.239 10.928 21.343 11.026 21.425ZM13.586 18L12 19.586L10.414 18H5V17.978L4.967 17.975C4.691 17.952 4.589 17.913 4.539 17.887C4.35659 17.7922 4.20783 17.6434 4.113 17.461C4.086 17.411 4.048 17.309 4.025 17.033C4 16.745 4 16.366 4 15.78V6.22C4 5.634 4 5.255 4.025 4.967C4.048 4.691 4.086 4.589 4.113 4.539C4.20783 4.35659 4.35659 4.20783 4.539 4.113C4.589 4.086 4.691 4.048 4.967 4.025C5.255 4 5.634 4 6.22 4H17.78C18.366 4 18.745 4 19.033 4.025C19.309 4.048 19.411 4.086 19.461 4.113C19.6434 4.20783 19.7922 4.35659 19.887 4.539C19.913 4.589 19.952 4.691 19.975 4.967C19.999 5.255 20 5.634 20 6.22V15.78C20 16.366 20 16.745 19.975 17.033C19.952 17.309 19.913 17.411 19.887 17.461C19.7922 17.6434 19.6434 17.7922 19.461 17.887C19.411 17.913 19.309 17.952 19.033 17.975L19 17.978V18H13.586Z" fill="#FAFAFA"/>
<path d="M7 12.5C7.19698 12.5 7.39204 12.4612 7.57403 12.3858C7.75601 12.3104 7.92137 12.1999 8.06066 12.0607C8.19995 11.9214 8.31044 11.756 8.38582 11.574C8.4612 11.392 8.5 11.197 8.5 11C8.5 10.803 8.4612 10.608 8.38582 10.426C8.31044 10.244 8.19995 10.0786 8.06066 9.93934C7.92137 9.80005 7.75601 9.68956 7.57403 9.61418C7.39204 9.5388 7.19698 9.5 7 9.5C6.60218 9.5 6.22064 9.65804 5.93934 9.93934C5.65804 10.2206 5.5 10.6022 5.5 11C5.5 11.3978 5.65804 11.7794 5.93934 12.0607C6.22064 12.342 6.60218 12.5 7 12.5ZM13.5 11C13.5 11.3978 13.342 11.7794 13.0607 12.0607C12.7794 12.342 12.3978 12.5 12 12.5C11.6022 12.5 11.2206 12.342 10.9393 12.0607C10.658 11.7794 10.5 11.3978 10.5 11C10.5 10.6022 10.658 10.2206 10.9393 9.93934C11.2206 9.65804 11.6022 9.5 12 9.5C12.3978 9.5 12.7794 9.65804 13.0607 9.93934C13.342 10.2206 13.5 10.6022 13.5 11ZM18.5 11C18.5 11.3978 18.342 11.7794 18.0607 12.0607C17.7794 12.342 17.3978 12.5 17 12.5C16.6022 12.5 16.2206 12.342 15.9393 12.0607C15.658 11.7794 15.5 11.3978 15.5 11C15.5 10.6022 15.658 10.2206 15.9393 9.93934C16.2206 9.65804 16.6022 9.5 17 9.5C17.3978 9.5 17.7794 9.65804 18.0607 9.93934C18.342 10.2206 18.5 10.6022 18.5 11Z" fill="#FAFAFA"/>
</svg>
