<svg width="24" height="24" viewBox="0 0 24 24" fill="none" xmlns="http://www.w3.org/2000/svg">
<path fill-rule="evenodd" clip-rule="evenodd" d="M12 5.00002C10.9222 5.00056 9.85918 5.24995 8.89362 5.72876C7.92807 6.20757 7.08612 6.90287 6.43338 7.76047C5.78064 8.61807 5.33474 9.61481 5.13043 10.673C4.92612 11.7312 4.96891 12.8223 5.25548 13.8613C5.54205 14.9002 6.06464 15.859 6.78255 16.6628C7.50046 17.4667 8.39428 18.0939 9.39437 18.4956C10.3945 18.8973 11.4738 19.0627 12.5483 18.9788C13.6228 18.8949 14.6634 18.5641 15.589 18.012C15.7039 17.9432 15.8314 17.8983 15.964 17.8797C16.0967 17.8611 16.2316 17.8694 16.361 17.904L18.474 18.47L17.907 16.355C17.8724 16.2257 17.8641 16.0907 17.8827 15.9581C17.9012 15.8255 17.9462 15.6979 18.015 15.583C18.6482 14.5203 18.9885 13.3088 19.0011 12.0718C19.0138 10.8348 18.6985 9.61659 18.0872 8.54112C17.476 7.46564 16.5906 6.57137 15.5213 5.94934C14.4521 5.32731 13.237 4.99976 12 5.00002ZM3 12C3.00059 10.6328 3.31266 9.28372 3.91252 8.05515C4.51238 6.82657 5.38427 5.7508 6.46198 4.90952C7.5397 4.06823 8.79492 3.48354 10.1324 3.19982C11.4698 2.91611 12.8543 2.94083 14.1808 3.27211C15.5072 3.60339 16.7408 4.23252 17.7878 5.11175C18.8348 5.99098 19.6677 7.09718 20.2233 8.34639C20.7789 9.5956 21.0426 10.955 20.9944 12.3213C20.9462 13.6877 20.5873 15.0251 19.945 16.232L20.855 19.625C20.9006 19.7947 20.9007 19.9734 20.8552 20.1432C20.8097 20.3129 20.7204 20.4677 20.5961 20.5919C20.4718 20.7161 20.3169 20.8053 20.1472 20.8506C19.9774 20.896 19.7987 20.8958 19.629 20.85L16.239 19.941C14.8676 20.6733 13.3298 21.0378 11.7756 20.999C10.2214 20.9603 8.7038 20.5196 7.37057 19.7199C6.03734 18.9202 4.934 17.7888 4.16805 16.4359C3.40211 15.0829 2.99969 13.5547 3 12Z" fill="#FAFAFA"/>
</svg>
