<svg width="24" height="24" viewBox="0 0 24 24" fill="none" xmlns="http://www.w3.org/2000/svg">
<path d="M11.9513 21.0031C11.6913 21.0031 11.4313 20.9431 11.2113 20.7731C8.55131 18.8331 5.78131 16.6931 3.73131 13.7531C3.01131 12.7131 2.04131 11.1031 2.00131 9.0631C1.95131 6.6131 3.34131 4.3631 5.46131 3.4431C7.59131 2.5231 10.1213 3.0631 11.9113 4.8231L11.9913 4.9031C12.0713 4.8231 12.1513 4.7431 12.2313 4.6731C14.2313 2.8531 17.0213 2.4931 19.1513 3.7731C21.3613 5.1031 22.4413 7.8431 21.8013 10.4531C21.2313 12.7431 19.8313 14.4831 18.5313 15.8931C16.7513 17.8131 14.6713 19.4131 12.8713 20.7231C12.6513 20.8831 12.3013 21.0131 11.9413 21.0131L11.9513 21.0031ZM7.62131 5.0031C7.15131 5.0031 6.69131 5.0931 6.26131 5.2831C4.88131 5.8831 3.97131 7.3831 4.00131 9.0231C4.02131 10.1731 4.45131 11.2831 5.37131 12.6131C7.14131 15.1631 9.60131 17.1131 12.0013 18.8831C13.7213 17.6231 15.5113 16.2231 17.0713 14.5331C18.2513 13.2531 19.4113 11.8131 19.8713 9.9731C20.3113 8.2131 19.5913 6.3731 18.1313 5.4931C16.7413 4.6531 14.9513 4.9131 13.5813 6.1631C13.3913 6.3331 13.2113 6.5331 13.0413 6.7231L12.0513 7.7631L10.5113 6.2631C9.68131 5.4531 8.63131 5.0131 7.61131 5.0131L7.62131 5.0031Z" fill="#FAFAFA"/>
<path d="M12.5763 20.3181C12.4295 20.417 12.2618 20.4803 12.0863 20.5031H11.9503C11.7957 20.5103 11.6431 20.4659 11.5163 20.3771L11.5053 20.3691C8.8463 18.4291 6.1393 16.3321 4.1413 13.4671C3.4353 12.4471 2.5373 10.9401 2.5013 9.05311C2.4533 6.79011 3.7393 4.73411 5.6593 3.90011C7.5833 3.07011 9.8993 3.54611 11.5593 5.17711L11.6373 5.25511L11.9903 5.60911L12.3443 5.25511C12.4263 5.17311 12.4943 5.10511 12.5603 5.04811L12.5673 5.04111C14.4233 3.35311 16.9733 3.04711 18.8933 4.20011C20.9033 5.41011 21.9063 7.92011 21.3153 10.3321C20.7773 12.4941 19.4513 14.1561 18.1633 15.5521C16.4183 17.4351 14.3713 19.0121 12.5763 20.3171V20.3181Z" stroke="#FAFAFA"/>
</svg>
