<svg width="24" height="24" viewBox="0 0 24 24" fill="none" xmlns="http://www.w3.org/2000/svg">
<path fill-rule="evenodd" clip-rule="evenodd" d="M2.32418 5.095C1.64018 4.338 2.10018 3 3.24418 3H21.0002C21.1745 3.00015 21.3457 3.04585 21.4969 3.13257C21.6481 3.21929 21.774 3.34402 21.8621 3.4944C21.9502 3.64478 21.9975 3.81557 21.9993 3.98986C22.0011 4.16415 21.9572 4.33587 21.8722 4.488L12.9952 20.362C12.4452 21.344 11.0252 21.144 10.7182 20.105L8.20518 11.598L2.32418 5.095ZM10.2782 11.557L12.1282 17.816L18.3042 6.772L10.2782 11.557ZM17.3702 5H4.93518L9.29118 9.818L17.3702 5Z" fill="#FAFAFA"/>
</svg>
