<svg width="25" height="24" viewBox="0 0 25 24" fill="none" xmlns="http://www.w3.org/2000/svg">
<path d="M12.5 6C12.7652 6 13.0196 6.10536 13.2071 6.29289C13.3946 6.48043 13.5 6.73478 13.5 7V11H17.5C17.7652 11 18.0196 11.1054 18.2071 11.2929C18.3946 11.4804 18.5 11.7348 18.5 12C18.5 12.2652 18.3946 12.5196 18.2071 12.7071C18.0196 12.8946 17.7652 13 17.5 13H13.5V17C13.5 17.2652 13.3946 17.5196 13.2071 17.7071C13.0196 17.8946 12.7652 18 12.5 18C12.2348 18 11.9804 17.8946 11.7929 17.7071C11.6054 17.5196 11.5 17.2652 11.5 17V13H7.5C7.23478 13 6.98043 12.8946 6.79289 12.7071C6.60536 12.5196 6.5 12.2652 6.5 12C6.5 11.7348 6.60536 11.4804 6.79289 11.2929C6.98043 11.1054 7.23478 11 7.5 11H11.5V7C11.5 6.73478 11.6054 6.48043 11.7929 6.29289C11.9804 6.10536 12.2348 6 12.5 6Z" fill="#FAFAFA"/>
<path fill-rule="evenodd" clip-rule="evenodd" d="M11.506 2C10.12 2 9.017 2 8.128 2.074C7.218 2.149 6.443 2.308 5.734 2.676C4.63847 3.24519 3.74519 4.13847 3.176 5.234C2.808 5.943 2.649 6.718 2.574 7.628C2.5 8.518 2.5 9.619 2.5 11.005V12.995C2.5 14.381 2.5 15.483 2.574 16.372C2.649 17.282 2.808 18.058 3.176 18.766C3.74503 19.8619 4.63832 20.7555 5.734 21.325C6.443 21.692 7.218 21.851 8.128 21.926C9.018 22 10.12 22 11.505 22H13.495C14.881 22 15.983 22 16.872 21.926C17.782 21.851 18.558 21.693 19.266 21.325C20.3622 20.7554 21.2559 19.8614 21.825 18.765C22.192 18.058 22.351 17.282 22.426 16.372C22.5 15.482 22.5 14.38 22.5 12.995V11.005C22.5 9.62 22.5 8.517 22.426 7.628C22.351 6.718 22.193 5.943 21.825 5.234C21.2553 4.13817 20.3613 3.24486 19.265 2.676C18.558 2.308 17.782 2.149 16.872 2.074C15.982 2 14.88 2 13.495 2H11.506ZM6.656 4.45C7.031 4.255 7.51 4.132 8.294 4.067C9.09 4 10.11 4 11.55 4H13.45C14.89 4 15.91 4 16.706 4.067C17.491 4.132 17.969 4.255 18.344 4.45C19.0747 4.82953 19.6705 5.4253 20.05 6.156C20.245 6.531 20.368 7.01 20.433 7.794C20.499 8.59 20.5 9.609 20.5 11.05V12.95C20.5 14.39 20.5 15.41 20.433 16.206C20.368 16.991 20.245 17.469 20.05 17.844C19.6705 18.5747 19.0747 19.1705 18.344 19.55C17.969 19.745 17.49 19.868 16.706 19.933C15.91 20 14.891 20 13.45 20H11.55C10.11 20 9.09 20 8.294 19.933C7.51 19.868 7.031 19.745 6.656 19.55C5.9253 19.1705 5.32953 18.5747 4.95 17.844C4.755 17.469 4.632 16.99 4.567 16.206C4.5 15.41 4.5 14.391 4.5 12.95V11.05C4.5 9.61 4.5 8.59 4.567 7.794C4.632 7.01 4.755 6.531 4.95 6.156C5.32953 5.4253 5.9253 4.82953 6.656 4.45Z" fill="#FAFAFA"/>
</svg>
