<svg width="24" height="24" viewBox="0 0 24 24" fill="none" xmlns="http://www.w3.org/2000/svg">
<path d="M18.227 22.9122C13.314 22.9122 8.941 19.2852 6.741 17.0842C4.486 14.8302 0.731004 10.2912 0.921004 5.23123C0.954004 4.43123 1.276 3.67123 1.829 3.09323C2.40733 2.47769 3.03072 1.90611 3.694 1.38323C4.13293 1.04855 4.67718 0.882106 5.22822 0.914024C5.77926 0.945942 6.30066 1.17411 6.698 1.55723C8.33645 3.00461 9.59285 4.83356 10.356 6.88223C10.5524 7.52885 10.484 8.22696 10.166 8.82323L9.711 9.67623C9.67907 9.7351 9.66038 9.80023 9.65624 9.86708C9.65209 9.93392 9.66259 10.0009 9.687 10.0632C10.4554 11.9061 11.9208 13.3707 13.764 14.1382C13.8262 14.1625 13.893 14.1729 13.9596 14.1688C14.0263 14.1646 14.0913 14.146 14.15 14.1142L15.003 13.6592C15.599 13.3415 16.2967 13.2731 16.943 13.4692C18.992 14.2322 20.8213 15.4886 22.269 17.1272C22.6519 17.5245 22.8799 18.0457 22.9118 18.5965C22.9437 19.1473 22.7774 19.6914 22.443 20.1302C21.9202 20.7939 21.3486 21.4176 20.733 21.9962C20.1542 22.5487 19.3944 22.8721 18.595 22.9062C18.4724 22.9105 18.3497 22.9125 18.227 22.9122ZM5.083 2.91223C5.02288 2.91113 4.9641 2.93013 4.916 2.96623C4.334 3.4269 3.78867 3.92823 3.28 4.47023C3.06318 4.69641 2.93534 4.99329 2.92 5.30623C2.759 9.60723 6.13 13.6462 8.155 15.6702C10.18 17.6942 14.215 21.0732 18.521 20.9062C18.834 20.8922 19.131 20.7642 19.356 20.5462C19.8971 20.0385 20.3999 19.4913 20.86 18.9092C20.901 18.8461 20.9188 18.7706 20.9102 18.6958C20.9016 18.621 20.8673 18.5515 20.813 18.4992C19.5956 17.121 18.0679 16.0519 16.356 15.3802C16.2185 15.3409 16.0711 15.3567 15.945 15.4242L15.091 15.8792C14.7753 16.0489 14.4262 16.1472 14.0684 16.1672C13.7106 16.1873 13.3527 16.1285 13.02 15.9952C11.8563 15.5144 10.799 14.8086 9.90853 13.9183C9.0181 13.028 8.3121 11.9708 7.831 10.8072C7.69836 10.4746 7.63993 10.1171 7.65979 9.75952C7.67965 9.40199 7.77733 9.0531 7.946 8.73723L8.402 7.88123C8.46999 7.75563 8.48545 7.6082 8.445 7.47123C7.77374 5.75908 6.70502 4.23106 5.327 3.01323C5.26125 2.95024 5.17406 2.9145 5.083 2.91323" fill="#FAFAFA"/>
</svg>
