<svg width="24" height="24" viewBox="0 0 24 24" fill="none" xmlns="http://www.w3.org/2000/svg">
<path fill-rule="evenodd" clip-rule="evenodd" d="M9.396 2H14.604C15.706 2 16.594 2 17.314 2.06C18.054 2.121 18.704 2.251 19.304 2.563C20.2175 3.03719 20.9624 3.78174 21.437 4.695C21.749 5.295 21.879 5.945 21.94 6.686C22 7.406 22 8.294 22 9.396V14.604C22 15.706 22 16.594 21.94 17.314C21.879 18.054 21.749 18.704 21.437 19.304C20.9628 20.2175 20.2183 20.9624 19.305 21.437C18.705 21.749 18.055 21.879 17.314 21.94C16.594 22 15.706 22 14.604 22H9.396C8.294 22 7.406 22 6.686 21.94C5.946 21.879 5.296 21.749 4.696 21.437C3.78251 20.9628 3.03762 20.2183 2.563 19.305C2.251 18.705 2.121 18.055 2.06 17.314C2 16.594 2 15.706 2 14.604V9.396C2 8.294 2 7.406 2.06 6.686C2.121 5.946 2.251 5.296 2.563 4.696C3.03719 3.78251 3.78174 3.03762 4.695 2.563C5.295 2.251 5.945 2.121 6.686 2.06C7.406 2 8.294 2 9.396 2ZM6.852 4.053C6.237 4.103 5.884 4.199 5.617 4.338C5.06872 4.62269 4.62169 5.06972 4.337 5.618C4.199 5.884 4.104 6.237 4.053 6.852C4 7.479 4 8.284 4 9.44V14.56C4 15.716 4 16.521 4.053 17.148C4.103 17.763 4.199 18.116 4.338 18.383C4.62269 18.9313 5.06972 19.3783 5.618 19.663C5.884 19.801 6.237 19.896 6.852 19.947C7.479 20 8.284 20 9.44 20H14.56C15.716 20 16.521 20 17.148 19.947C17.763 19.897 18.116 19.801 18.383 19.662C18.9313 19.3773 19.3783 18.9303 19.663 18.382C19.801 18.116 19.896 17.763 19.947 17.148C19.999 16.521 20 15.716 20 14.56V9.44C20 8.284 20 7.479 19.947 6.852C19.897 6.237 19.801 5.884 19.662 5.617C19.3773 5.06872 18.9303 4.62169 18.382 4.337C18.116 4.199 17.763 4.104 17.148 4.053C16.521 4 15.716 4 14.56 4H9.44C8.284 4 7.479 4 6.852 4.053Z" fill="#FAFAFA"/>
<path fill-rule="evenodd" clip-rule="evenodd" d="M17.0006 11C17.2658 11.0001 17.5201 11.1055 17.7076 11.293L21.9146 15.5L20.5006 16.914L17.0006 13.414L11.7076 18.707C11.6107 18.8038 11.495 18.8798 11.3676 18.93C11.2402 18.9803 11.1038 19.0039 10.9669 18.9993C10.8301 18.9947 10.6956 18.9621 10.5718 18.9033C10.4481 18.8446 10.3377 18.7611 10.2476 18.658L7.45858 15.471L4.00858 18.993C3.82293 19.1826 3.56955 19.2907 3.30419 19.2936C3.03882 19.2964 2.78321 19.1937 2.59358 19.008C2.40395 18.8223 2.29584 18.569 2.29303 18.3036C2.29021 18.0382 2.39293 17.7826 2.57858 17.593L6.78758 13.3C6.88399 13.2015 6.99971 13.1241 7.12747 13.0724C7.25524 13.0208 7.39229 12.9962 7.53004 13C7.66779 13.0039 7.80325 13.0361 7.92793 13.0948C8.05261 13.1535 8.16382 13.2373 8.25458 13.341L11.0506 16.537L16.2946 11.293C16.4818 11.1057 16.7357 11.0003 17.0006 11Z" fill="#FAFAFA"/>
<path d="M9 7.5C9 7.89782 8.84196 8.27936 8.56066 8.56066C8.27936 8.84196 7.89782 9 7.5 9C7.10218 9 6.72064 8.84196 6.43934 8.56066C6.15804 8.27936 6 7.89782 6 7.5C6 7.10218 6.15804 6.72064 6.43934 6.43934C6.72064 6.15804 7.10218 6 7.5 6C7.89782 6 8.27936 6.15804 8.56066 6.43934C8.84196 6.72064 9 7.10218 9 7.5Z" fill="#FAFAFA"/>
</svg>
