<svg width="25" height="24" viewBox="0 0 25 24" fill="none" xmlns="http://www.w3.org/2000/svg">
<path fill-rule="evenodd" clip-rule="evenodd" d="M13.19 2.27619C13.004 2.0989 12.7569 2 12.5 2C12.2431 2 11.996 2.0989 11.81 2.27619L2.81 10.8592C2.71213 10.9525 2.6342 11.0647 2.58092 11.1889C2.52764 11.3132 2.50011 11.447 2.5 11.5822V21.0002C2.5 21.2654 2.60536 21.5198 2.79289 21.7073C2.98043 21.8948 3.23478 22.0002 3.5 22.0002H9.5V17.0002C9.5 15.8952 10 14.0002 12.5 14.0002C15 14.0002 15.5 15.8952 15.5 17.0002V22.0002H21.5C21.7652 22.0002 22.0196 21.8948 22.2071 21.7073C22.3946 21.5198 22.5 21.2654 22.5 21.0002V11.5822C22.5 11.4468 22.4726 11.3128 22.4193 11.1884C22.366 11.0639 22.288 10.9516 22.19 10.8582L13.19 2.27619Z" fill="#FAFAFA"/>
</svg>
