<svg width="25" height="24" viewBox="0 0 25 24" fill="none" xmlns="http://www.w3.org/2000/svg">
<path d="M15.3 14.1319C15.3615 14.1716 15.4121 14.2261 15.4471 14.2904C15.4821 14.3547 15.5005 14.4267 15.5005 14.4999C15.5005 14.5731 15.4821 14.6451 15.4471 14.7094C15.4121 14.7737 15.3615 14.8282 15.3 14.8679L11.1 17.4419C10.833 17.6059 10.5 17.4019 10.5 17.0749V11.9249C10.5 11.5979 10.833 11.3949 11.1 11.5569L15.3 14.1319Z" fill="#FAFAFA"/>
<path fill-rule="evenodd" clip-rule="evenodd" d="M8.5 2C6.9087 2 5.38258 2.63214 4.25736 3.75736C3.13214 4.88258 2.5 6.4087 2.5 8V16C2.5 17.5913 3.13214 19.1174 4.25736 20.2426C5.38258 21.3679 6.9087 22 8.5 22H16.5C18.0913 22 19.6174 21.3679 20.7426 20.2426C21.8679 19.1174 22.5 17.5913 22.5 16V8C22.5 6.4087 21.8679 4.88258 20.7426 3.75736C19.6174 2.63214 18.0913 2 16.5 2H8.5ZM16.5 4H15.266L17.066 7H20.374C20.1523 6.14121 19.6514 5.38047 18.9501 4.83741C18.2488 4.29435 17.387 3.99977 16.5 4ZM20.5 9H4.5V16C4.5 17.0609 4.92143 18.0783 5.67157 18.8284C6.42172 19.5786 7.43913 20 8.5 20H16.5C17.5609 20 18.5783 19.5786 19.3284 18.8284C20.0786 18.0783 20.5 17.0609 20.5 16V9ZM4.626 7H8.734L7.088 4.256C6.48806 4.48311 5.95137 4.85083 5.52297 5.3283C5.09457 5.80577 4.78697 6.37904 4.626 7ZM11.066 7H14.734L12.934 4H9.266L11.066 7Z" fill="#FAFAFA"/>
</svg>
