<svg width="25" height="24" viewBox="0 0 25 24" fill="none" xmlns="http://www.w3.org/2000/svg">
<path fill-rule="evenodd" clip-rule="evenodd" d="M16.2617 17.1762C14.5593 18.518 12.4085 19.1587 10.2494 18.9673C8.09018 18.7759 6.08571 17.7667 4.64592 16.1463C3.20613 14.5259 2.43981 12.4167 2.5037 10.25C2.56758 8.08328 3.45684 6.02284 4.9896 4.49008C6.52235 2.95733 8.58279 2.06807 10.7495 2.00418C12.9162 1.9403 15.0255 2.70662 16.6459 4.14641C18.2663 5.5862 19.2754 7.59067 19.4668 9.74984C19.6582 11.909 19.0175 14.0598 17.6757 15.7622L22.1557 20.2422C22.338 20.4306 22.439 20.6832 22.4369 20.9454C22.4348 21.2076 22.3298 21.4585 22.1445 21.644C21.9592 21.8296 21.7085 21.9349 21.4463 21.9374C21.1841 21.9398 20.9314 21.8392 20.7427 21.6572L16.2617 17.1762ZM17.4997 10.5002C17.4997 12.2241 16.8149 13.8774 15.5959 15.0964C14.3769 16.3154 12.7236 17.0002 10.9997 17.0002C9.27578 17.0002 7.62248 16.3154 6.40349 15.0964C5.1845 13.8774 4.49968 12.2241 4.49968 10.5002C4.49968 8.77627 5.1845 7.12296 6.40349 5.90398C7.62248 4.68499 9.27578 4.00017 10.9997 4.00017C12.7236 4.00017 14.3769 4.68499 15.5959 5.90398C16.8149 7.12296 17.4997 8.77627 17.4997 10.5002Z" fill="#FAFAFA"/>
</svg>
