<svg width="16" height="16" viewBox="0 0 16 16" fill="none" xmlns="http://www.w3.org/2000/svg">
<path d="M7.97086 12.8979C7.84086 12.8979 7.71086 12.8679 7.59086 12.7779C6.11086 11.6979 4.58086 10.5179 3.45086 8.88792C3.05086 8.31792 2.52086 7.43792 2.50086 6.31792C2.47086 4.97792 3.23086 3.74792 4.39086 3.24792C5.55086 2.74792 6.94086 3.03792 7.91086 3.99792L8.00086 4.07792L8.17086 3.90792C9.27086 2.90792 10.7809 2.71792 11.9509 3.41792C13.1609 4.14792 13.7509 5.64792 13.4009 7.06792C13.0909 8.32792 12.3109 9.28792 11.6009 10.0679C10.6209 11.1379 9.46086 12.0179 8.46086 12.7379C8.35086 12.8179 8.17086 12.8879 7.98086 12.8879L7.97086 12.8979ZM5.57086 4.00792C5.30086 4.00792 5.04086 4.05792 4.79086 4.16792C4.00086 4.50792 3.48086 5.36792 3.50086 6.29792C3.51086 6.94792 3.75086 7.57792 4.27086 8.31792C5.27086 9.75792 6.65086 10.8479 8.00086 11.8379C8.97086 11.1279 9.98086 10.3479 10.8609 9.38792C11.5209 8.66792 12.1709 7.86792 12.4309 6.82792C12.6809 5.82792 12.2709 4.77792 11.4409 4.27792C10.6509 3.79792 9.63086 3.94792 8.85086 4.65792C8.74086 4.75792 8.65086 4.85792 8.55086 4.96792L8.04086 5.50792L7.23086 4.71792C6.76086 4.25792 6.16086 4.00792 5.58086 4.00792H5.57086Z" fill="#A8A8A8"/>
</svg>
