<svg width="24" height="24" viewBox="0 0 24 24" fill="none" xmlns="http://www.w3.org/2000/svg">
<path d="M14.999 3H4C3.20435 3 2.44129 3.31607 1.87868 3.87868C1.31607 4.44129 1 5.20435 1 6V18C1 18.7956 1.31607 19.5587 1.87868 20.1213C2.44129 20.6839 3.20435 21 4 21H14.999C15.7946 21 16.5577 20.6839 17.1203 20.1213C17.6829 19.5587 17.999 18.7956 17.999 18V6C17.999 5.20435 17.6829 4.44129 17.1203 3.87868C16.5577 3.31607 15.7946 3 14.999 3Z" stroke="#FAFAFA" stroke-width="2" stroke-linecap="round" stroke-linejoin="round"/>
<path d="M17.998 9.14629L20.493 6.89029C20.7084 6.69561 20.9755 6.56759 21.2622 6.52175C21.5488 6.47591 21.8426 6.51423 22.1079 6.63206C22.3732 6.74988 22.5986 6.94215 22.7568 7.18555C22.915 7.42895 22.9991 7.71301 22.999 8.00329V15.9973C22.9991 16.2876 22.915 16.5716 22.7568 16.815C22.5986 17.0584 22.3732 17.2507 22.1079 17.3685C21.8426 17.4864 21.5488 17.5247 21.2622 17.4788C20.9755 17.433 20.7084 17.305 20.493 17.1103L17.999 14.8543" stroke="#FAFAFA" stroke-width="2" stroke-linecap="round" stroke-linejoin="round"/>
</svg>
